<svg width="468" height="83" viewBox="0 0 468 83" fill="none" xmlns="http://www.w3.org/2000/svg">
<path d="M10.7914 31.728C11.5274 30.768 11.9754 31.2 12.1354 33.024L13.5274 44.544C13.8794 47.52 14.8874 48.992 16.5514 48.96C17.3194 48.96 17.8474 49.312 18.1354 50.016C18.4234 50.784 18.3914 51.76 18.0394 52.944C17.6874 54.128 17.1914 54.72 16.5514 54.72C14.5674 54.72 13.1594 54.208 12.3274 53.184C11.5274 52.192 10.9514 50.448 10.5994 47.952C9.38338 49.776 8.53538 50.8 8.05538 51.024C7.60738 51.248 6.79138 51.312 5.60738 51.216C4.07138 51.12 2.75938 50.72 1.67138 50.016C0.967375 49.568 0.663375 48.88 0.759375 47.952C0.855375 47.024 1.20738 46 1.81538 44.88C2.13538 44.304 2.42338 43.808 2.67938 43.392C2.93538 42.976 3.15938 42.656 3.35138 42.432C4.88738 40.8 6.82338 39.328 9.15938 38.016C8.90338 35.488 8.96738 33.984 9.35138 33.504L10.7914 31.728ZM9.59138 41.472C7.15938 42.24 5.49538 43.264 4.59938 44.544C4.47138 44.736 4.51938 44.896 4.74338 45.024C6.34338 45.696 8.13538 45.76 10.1194 45.216C10.0554 44.704 9.97538 44.144 9.87938 43.536C9.78338 42.896 9.68738 42.208 9.59138 41.472ZM18.9949 43.776L20.3869 40.8C20.8669 39.744 21.2829 39.536 21.6349 40.176C23.2029 42.832 23.5709 45.936 22.7389 49.488C21.9389 52.976 19.8749 54.72 16.5469 54.72C15.9069 54.72 15.4429 54.176 15.1549 53.088C15.0269 52.544 14.9309 52.064 14.8669 51.648C14.8029 51.2 14.7709 50.816 14.7709 50.496C14.7709 49.856 15.1069 49.392 15.7789 49.104C16.0349 49.008 16.2909 48.96 16.5469 48.96C18.3389 48.992 19.6829 48.624 20.5789 47.856C20.3869 46.992 20.0189 46.272 19.4749 45.696C18.8669 45.024 18.7069 44.384 18.9949 43.776ZM21.8269 31.2C22.0189 30.944 22.2909 30.864 22.6429 30.96C23.2829 31.184 23.9069 31.472 24.5149 31.824C25.1229 32.176 25.6829 32.576 26.1949 33.024C26.4509 33.28 26.4989 33.568 26.3389 33.888L24.0349 37.536C23.7789 37.888 23.4909 37.92 23.1709 37.632C23.0429 37.504 22.7549 37.312 22.3069 37.056C21.8909 36.768 21.3309 36.416 20.6269 36L19.0429 38.592C18.8189 38.912 18.5309 38.944 18.1789 38.688C18.0189 38.56 17.6349 38.32 17.0269 37.968C16.4509 37.616 15.6669 37.136 14.6749 36.528C14.3229 36.336 14.2749 36.064 14.5309 35.712L16.8349 32.256C17.0269 32 17.2989 31.92 17.6509 32.016C18.6109 32.336 19.5069 32.8 20.3389 33.408L21.8269 31.2ZM29.6715 18.528C30.5675 21.792 31.0315 26.992 31.0635 34.128C31.0955 37.712 31.1915 40.544 31.3515 42.624C31.5115 44.704 31.7195 46.048 31.9755 46.656C32.5195 47.872 33.4955 48.608 34.9035 48.864C36.2795 49.088 37.0955 50.272 37.3515 52.416C37.5115 53.92 36.9995 54.832 35.8155 55.152C35.5275 55.248 35.1435 55.264 34.6635 55.2C33.0635 55.072 31.6875 54.4 30.5355 53.184C28.6475 51.232 27.7515 46.96 27.8475 40.368C27.8795 38.576 27.8475 36.816 27.7515 35.088C27.6875 33.328 27.5595 31.584 27.3675 29.856C27.1755 28.128 26.9995 26.688 26.8395 25.536C26.7115 24.384 26.5835 23.552 26.4555 23.04C26.2315 21.984 26.1355 21.328 26.1675 21.072C26.2315 20.784 26.2955 20.576 26.3595 20.448L27.7515 18.24C27.9115 17.92 28.1355 17.712 28.4235 17.616C28.9995 17.424 29.4155 17.728 29.6715 18.528ZM32.6726 34.752C37.7606 36.128 41.1366 37.888 42.8006 40.032C44.3366 42.048 45.1046 44.08 45.1046 46.128C45.0726 51.12 43.3446 54.048 39.9206 54.912C38.4806 55.232 36.7046 55.328 34.5926 55.2C33.7926 55.104 33.2166 54.576 32.8646 53.616C32.5126 52.624 32.4966 51.648 32.8166 50.688C33.2326 49.312 33.8726 48.688 34.7366 48.816C37.8406 49.264 40.6726 48.512 43.2326 46.56C42.1446 45.088 40.5766 43.744 38.5286 42.528C36.4806 41.312 33.9366 40.256 30.8966 39.36C30.1926 39.168 29.8406 38.272 29.8406 36.672C29.8406 36 29.8726 35.424 29.9366 34.944C30.0006 34.432 30.0966 34.016 30.2246 33.696C31.4726 30.656 35.3126 27.248 41.7446 23.472C45.0086 21.552 47.8406 19.968 50.2406 18.72C52.6726 17.44 54.6726 16.528 56.2406 15.984C57.9366 15.344 58.5926 15.872 58.2086 17.568L57.5366 20.64C57.3446 21.312 56.9446 21.76 56.3366 21.984C54.3846 22.784 52.2726 23.744 50.0006 24.864C47.7606 25.952 45.3926 27.168 42.8966 28.512C37.8726 31.2 34.4646 33.28 32.6726 34.752ZM70.2773 44.304C70.9813 45.232 71.4293 46.208 71.6213 47.232C71.8133 48.384 71.8453 49.744 71.7173 51.312C71.3333 54.896 70.1173 57.808 68.0693 60.048C65.4773 62.928 63.2213 64.32 61.3013 64.224C57.9093 64.064 54.8372 63.056 52.0852 61.2C51.6692 60.944 51.4932 60.64 51.5572 60.288C51.5892 60.16 51.6372 60.064 51.7012 60C51.8932 59.84 52.2292 59.84 52.7092 60C54.6932 60.576 56.4213 60.672 57.8933 60.288C63.6853 58.912 67.6213 56 69.7013 51.552L68.2133 50.592C67.6053 50.112 67.3973 49.376 67.5893 48.384L68.3093 44.736C68.4053 44.32 68.5813 43.984 68.8373 43.728C68.9653 43.6 69.0933 43.536 69.2213 43.536C69.5413 43.504 69.8933 43.76 70.2773 44.304ZM74.109 44.544C74.877 43.872 75.229 43.104 75.165 42.24C75.133 41.376 75.357 40.944 75.837 40.944C76.317 40.944 76.605 41.264 76.701 41.904C76.989 44.336 76.749 46.4 75.981 48.096C75.213 49.792 73.997 50.784 72.333 51.072C70.669 51.36 69.325 51.232 68.301 50.688C67.565 50.304 67.325 49.552 67.581 48.432L68.301 44.736C68.397 44.256 68.573 43.904 68.829 43.68C69.373 43.328 69.853 43.44 70.269 44.016C70.717 44.624 71.357 44.944 72.189 44.976C73.085 45.04 73.725 44.896 74.109 44.544ZM73.629 55.68C73.821 55.424 74.093 55.344 74.445 55.44C75.085 55.664 75.693 55.952 76.269 56.304C76.877 56.656 77.437 57.056 77.949 57.504C78.205 57.76 78.253 58.048 78.093 58.368L75.789 62.016C75.565 62.336 75.277 62.368 74.925 62.112C74.605 61.856 73.453 61.136 71.469 59.952C71.117 59.728 71.053 59.456 71.277 59.136L73.629 55.68ZM90.795 44.208C92.043 40.784 93.419 39.088 94.923 39.12C96.043 39.152 97.051 39.888 97.947 41.328C98.779 42.704 99.275 44.288 99.435 46.08C99.595 47.84 99.307 50.192 98.571 53.136C97.867 56.048 96.475 58.752 94.395 61.248C92.315 63.744 90.571 65.056 89.163 65.184C88.011 65.344 86.315 65.184 84.075 64.704C82.987 64.48 82.027 64.24 81.195 63.984C80.331 63.76 79.627 63.536 79.083 63.312C78.731 63.152 78.603 62.88 78.699 62.496C78.795 62.08 79.099 61.92 79.611 62.016C81.531 62.304 83.819 62.144 86.475 61.536C87.787 61.248 89.707 60 92.235 57.792C93.515 56.672 94.539 55.664 95.307 54.768C96.107 53.904 96.619 53.12 96.843 52.416C96.811 52.256 96.747 52.064 96.651 51.84C96.587 51.584 96.507 51.312 96.411 51.024C95.067 52.752 93.451 53.184 91.563 52.32C89.419 51.36 89.163 48.656 90.795 44.208ZM95.355 46.464C94.427 44.96 93.435 44.896 92.379 46.272C93.179 47.168 94.171 47.232 95.355 46.464ZM133.437 48.192C134.269 48.256 134.797 48.8 135.021 49.824C135.149 50.336 135.213 50.848 135.213 51.36C135.245 51.872 135.197 52.4 135.069 52.944C134.845 53.968 134.333 54.528 133.533 54.624C130.781 54.912 128.941 53.632 128.013 50.784C127.277 51.712 126.621 52.224 126.045 52.32C123.005 52.864 120.701 52.56 119.133 51.408C118.333 50.8 118.125 49.936 118.509 48.816C119.117 46.864 120.221 45.216 121.821 43.872C122.621 43.2 123.437 42.64 124.269 42.192C125.101 41.744 125.949 41.392 126.813 41.136L126.765 39.36C126.765 38.88 127.037 38.08 127.581 36.96C127.869 36.352 128.109 35.872 128.301 35.52C128.525 35.136 128.701 34.848 128.829 34.656C129.053 34.272 129.373 34.16 129.789 34.32C130.205 34.48 130.429 34.672 130.461 34.896C130.493 35.024 130.509 35.136 130.509 35.232C130.509 35.328 130.509 35.392 130.509 35.424V35.712C130.509 35.744 130.509 35.808 130.509 35.904C130.541 35.968 130.557 36.048 130.557 36.144C130.557 36.24 130.557 36.576 130.557 37.152C130.557 37.696 130.573 38.448 130.605 39.408C130.637 40.368 130.685 41.296 130.749 42.192C130.813 43.056 130.893 43.904 130.989 44.736C131.181 46.432 131.581 47.488 132.189 47.904C132.477 48.096 132.893 48.192 133.437 48.192ZM127.005 44.88C125.693 45.36 124.669 45.888 123.933 46.464C124.221 46.496 124.509 46.528 124.797 46.56C125.117 46.592 125.437 46.592 125.757 46.56C126.109 46.528 126.397 46.496 126.621 46.464C126.845 46.432 127.021 46.384 127.149 46.32C127.117 45.968 127.069 45.488 127.005 44.88ZM144.792 47.808C145.656 47.936 146.216 48.56 146.472 49.68C146.696 50.736 146.712 51.744 146.52 52.704C146.328 53.696 146.12 54.256 145.896 54.384C145.768 54.448 145.64 54.512 145.512 54.576C145.384 54.64 145.272 54.672 145.176 54.672C143.64 54.704 142.424 54.304 141.528 53.472C141.112 53.056 140.696 52.624 140.28 52.176C139.896 51.696 139.528 51.184 139.176 50.64C138.408 52.272 137.608 53.328 136.776 53.808C135.944 54.32 134.856 54.592 133.512 54.624C132.52 54.656 131.768 54.128 131.256 53.04C130.744 51.92 130.648 50.848 130.968 49.824C131.32 48.736 132.152 48.192 133.464 48.192C135.384 48.192 136.648 47.6 137.256 46.416C137.224 46.256 137.176 46.016 137.112 45.696C137.048 45.344 136.984 44.944 136.92 44.496L135.912 39.072C135.688 37.952 135.496 37.008 135.336 36.24C135.208 35.44 135.112 34.816 135.048 34.368C134.92 33.472 135.016 32.784 135.336 32.304L136.776 30.096C136.936 29.872 137.16 29.696 137.448 29.568C138.088 29.376 138.536 29.792 138.792 30.816C138.824 30.944 138.888 31.328 138.984 31.968C139.112 32.576 139.256 33.408 139.416 34.464C139.896 37.664 140.344 40.208 140.76 42.096C141.208 43.952 141.608 45.184 141.96 45.792C142.664 46.976 143.608 47.648 144.792 47.808ZM140.568 17.088C140.728 16.224 141.064 15.808 141.576 15.84C142.184 15.904 142.504 16.256 142.536 16.896C142.536 16.928 142.52 16.96 142.488 16.992C142.488 17.024 142.488 17.072 142.488 17.136C142.392 18.832 142.072 20.304 141.528 21.552C140.856 23.024 139.88 23.808 138.6 23.904C137.864 23.936 137.16 23.616 136.488 22.944C136.264 23.264 136.008 23.568 135.72 23.856C135.464 24.112 135.16 24.32 134.808 24.48C133.88 24.928 133.016 24.992 132.216 24.672C130.2 23.808 129.928 21.424 131.4 17.52C131.688 16.816 132.12 16.56 132.696 16.752C132.728 16.752 132.76 16.768 132.792 16.8C132.792 16.8 132.808 16.8 132.84 16.8C133.352 17.056 133.512 17.536 133.32 18.24C133.288 18.4 133.24 18.56 133.176 18.72C133.144 18.88 133.112 19.04 133.08 19.2C132.92 20.224 133.144 20.784 133.752 20.88C134.584 20.976 135.288 20.224 135.864 18.624C135.928 18.4 135.992 18.176 136.056 17.952C136.152 17.728 136.232 17.488 136.296 17.232C136.488 16.592 136.84 16.288 137.352 16.32H137.4C137.944 16.448 138.184 16.736 138.12 17.184V17.328C138.088 17.456 138.056 17.6 138.024 17.76C138.024 17.888 138.024 18.016 138.024 18.144C138.024 18.944 138.28 19.392 138.792 19.488H138.984C139.752 19.488 140.248 18.88 140.472 17.664C140.504 17.568 140.52 17.472 140.52 17.376C140.552 17.28 140.568 17.184 140.568 17.088ZM132.072 1.92C132.392 1.056 132.888 1.024 133.56 1.824C136.632 5.248 137.688 9.632 136.728 14.976C136.632 15.456 136.424 15.712 136.104 15.744C135.496 15.84 135.16 15.584 135.096 14.976C134.648 11.68 133.432 8.816 131.448 6.384C131.096 5.936 131 5.472 131.16 4.992L132.072 1.92ZM146.159 30.96L148.559 42.24C148.719 43.104 148.847 43.84 148.943 44.448C149.071 45.024 149.151 45.488 149.183 45.84C149.215 46.192 149.231 46.576 149.231 46.992C149.231 47.408 149.199 47.84 149.135 48.288C148.687 52.544 147.343 54.672 145.103 54.672C143.791 54.64 142.767 53.824 142.031 52.224C141.295 50.624 141.279 49.408 141.983 48.576C142.655 47.776 143.519 47.504 144.575 47.76C144.927 47.856 145.263 47.872 145.583 47.808C145.519 47.296 145.375 46.56 145.151 45.6C144.959 44.608 144.687 43.376 144.335 41.904C143.983 40.432 143.663 39.056 143.375 37.776C143.087 36.464 142.847 35.264 142.655 34.176C142.527 33.12 143.007 31.808 144.095 30.24C144.319 29.92 144.575 29.728 144.863 29.664C145.535 29.568 145.967 30 146.159 30.96ZM156.252 20.784C156.892 19.408 157.308 19.728 157.5 21.744L158.652 33.456C159.612 43.952 159.388 50.56 157.98 53.28C157.66 53.856 157.356 54.096 157.068 54C156.748 53.904 156.604 53.136 156.636 51.696C156.668 50.48 156.54 48.48 156.252 45.696C155.964 42.88 155.532 39.312 154.956 34.992L153.948 27.024C153.852 26.352 153.948 25.696 154.236 25.056L156.252 20.784ZM188.354 31.728C189.09 30.768 189.538 31.2 189.698 33.024L191.09 44.544C191.442 47.52 192.45 48.992 194.114 48.96C194.882 48.96 195.41 49.312 195.698 50.016C195.986 50.784 195.954 51.76 195.602 52.944C195.25 54.128 194.754 54.72 194.114 54.72C192.13 54.72 190.722 54.208 189.89 53.184C189.09 52.192 188.514 50.448 188.162 47.952C186.946 49.776 186.098 50.8 185.618 51.024C185.17 51.248 184.354 51.312 183.17 51.216C181.634 51.12 180.322 50.72 179.234 50.016C178.53 49.568 178.226 48.88 178.322 47.952C178.418 47.024 178.77 46 179.378 44.88C179.698 44.304 179.986 43.808 180.242 43.392C180.498 42.976 180.722 42.656 180.914 42.432C182.45 40.8 184.386 39.328 186.722 38.016C186.466 35.488 186.53 33.984 186.914 33.504L188.354 31.728ZM187.154 41.472C184.722 42.24 183.058 43.264 182.162 44.544C182.034 44.736 182.082 44.896 182.306 45.024C183.906 45.696 185.698 45.76 187.682 45.216C187.618 44.704 187.538 44.144 187.442 43.536C187.346 42.896 187.25 42.208 187.154 41.472ZM184.034 24.144C184.226 23.888 184.498 23.808 184.85 23.904C185.49 24.128 186.114 24.416 186.722 24.768C187.33 25.12 187.89 25.52 188.402 25.968C188.658 26.224 188.706 26.512 188.546 26.832L186.242 30.48C185.986 30.832 185.698 30.864 185.378 30.576C185.25 30.448 184.962 30.256 184.514 30C184.098 29.712 183.538 29.36 182.834 28.944L181.25 31.536C181.026 31.856 180.738 31.888 180.386 31.632C180.226 31.504 179.842 31.264 179.234 30.912C178.658 30.56 177.874 30.08 176.882 29.472C176.53 29.28 176.482 29.008 176.738 28.656L179.042 25.2C179.234 24.944 179.506 24.864 179.858 24.96C180.818 25.28 181.714 25.744 182.546 26.352L184.034 24.144ZM207.117 53.088C205.741 52.992 204.333 52.72 202.893 52.272C201.485 51.792 200.077 51.12 198.669 50.256C197.325 53.232 195.805 54.72 194.109 54.72C193.309 54.72 192.765 54.192 192.477 53.136C191.901 50.928 192.141 49.6 193.197 49.152C193.453 49.024 193.757 48.96 194.109 48.96C195.517 48.96 196.621 48.56 197.421 47.76C197.965 46.48 198.525 45.408 199.101 44.544C199.677 43.68 200.253 43.024 200.829 42.576C201.213 42.288 201.869 42.096 202.797 42C204.877 41.744 206.541 42.416 207.789 44.016C209.261 45.872 209.853 47.504 209.565 48.912C209.277 50.224 208.845 51.248 208.269 51.984C207.693 52.72 207.309 53.088 207.117 53.088ZM204.669 45.936C202.813 44.784 201.501 44.784 200.733 45.936C202.877 47.152 204.861 47.84 206.685 48C206.397 47.296 205.725 46.608 204.669 45.936ZM207.253 33.312C208.373 33.312 209.509 33.616 210.661 34.224C211.749 34.8 212.885 35.504 214.069 36.336C217.301 38.544 221.253 40.064 225.925 40.896C226.341 40.992 226.597 41.184 226.693 41.472C226.789 41.76 226.789 42.16 226.693 42.672C226.597 43.184 226.165 44.048 225.397 45.264C225.013 45.808 224.517 45.984 223.909 45.792C220.261 44.608 217.221 43.904 214.789 43.68C212.389 43.456 210.005 43.584 207.637 44.064C206.485 44.288 205.429 44.432 204.469 44.496C203.477 44.56 202.581 44.512 201.781 44.352C201.269 44.256 200.869 44.048 200.581 43.728C200.293 43.408 200.389 43.04 200.869 42.624C202.725 41.152 205.701 40.304 209.797 40.08C207.365 38.576 204.757 38.112 201.973 38.688C201.589 38.784 201.301 38.704 201.109 38.448C200.661 37.872 200.661 37.312 201.109 36.768C202.997 34.464 205.045 33.312 207.253 33.312ZM240.501 39.84C240.565 39.552 240.677 39.376 240.837 39.312C241.189 39.216 241.701 39.584 242.373 40.416C242.885 41.024 243.365 41.776 243.813 42.672C244.261 43.568 244.645 44.624 244.965 45.84C246.469 51.216 245.509 56.112 242.085 60.528C240.101 63.088 237.669 64.752 234.789 65.52C233.733 65.808 232.837 65.776 232.101 65.424C230.693 64.816 229.445 64.256 228.357 63.744C227.237 63.264 226.277 62.832 225.477 62.448C224.965 62.16 224.789 61.84 224.949 61.488C225.141 61.104 225.493 60.976 226.005 61.104C228.181 61.744 229.909 61.904 231.189 61.584C232.565 61.232 234.325 60.416 236.469 59.136C240.245 56.864 242.533 54.656 243.333 52.512C243.365 52.448 243.381 52.352 243.381 52.224C243.093 50.72 241.733 48.704 239.301 46.176C239.077 45.952 239.013 45.648 239.109 45.264L240.501 39.84ZM256.217 44.208C257.465 40.784 258.841 39.088 260.345 39.12C261.465 39.152 262.473 39.888 263.369 41.328C264.201 42.704 264.697 44.288 264.857 46.08C265.017 47.84 264.729 50.192 263.993 53.136C263.289 56.048 261.897 58.752 259.817 61.248C257.737 63.744 255.993 65.056 254.585 65.184C253.433 65.344 251.737 65.184 249.497 64.704C248.409 64.48 247.449 64.24 246.617 63.984C245.753 63.76 245.049 63.536 244.505 63.312C244.153 63.152 244.025 62.88 244.121 62.496C244.217 62.08 244.521 61.92 245.033 62.016C246.953 62.304 249.241 62.144 251.897 61.536C253.209 61.248 255.129 60 257.657 57.792C258.937 56.672 259.961 55.664 260.729 54.768C261.529 53.904 262.041 53.12 262.265 52.416C262.233 52.256 262.169 52.064 262.073 51.84C262.009 51.584 261.929 51.312 261.833 51.024C260.489 52.752 258.873 53.184 256.985 52.32C254.841 51.36 254.585 48.656 256.217 44.208ZM260.777 46.464C259.849 44.96 258.857 44.896 257.801 46.272C258.601 47.168 259.593 47.232 260.777 46.464ZM287.963 52.56C287.259 52.24 287.051 51.648 287.339 50.784C288.011 48.896 288.459 47.824 288.683 47.568C288.811 47.408 288.923 47.296 289.019 47.232C289.115 47.136 289.179 47.072 289.211 47.04C289.691 46.624 290.635 46.64 292.043 47.088C294.955 48.048 297.531 49.36 299.771 51.024C300.571 51.632 300.795 52.464 300.443 53.52C300.219 54.224 300.027 54.784 299.867 55.2C299.739 55.616 299.659 55.872 299.627 55.968C299.243 56.864 298.683 57.296 297.947 57.264C296.379 57.072 294.859 56.992 293.387 57.024C291.915 57.088 290.491 57.296 289.115 57.648C287.355 58.096 286.235 58.576 285.755 59.088C285.787 59.312 285.883 60.048 286.043 61.296C286.235 62.544 286.523 64.304 286.907 66.576C287.291 68.816 287.579 70.592 287.771 71.904C287.995 73.248 288.123 74.128 288.155 74.544C288.219 75.632 288.187 76.736 288.059 77.856C287.931 79.008 287.723 80.176 287.435 81.36C287.243 82.032 286.891 82.32 286.379 82.224C285.899 82.128 285.707 81.344 285.803 79.872C285.899 78.432 285.179 73.872 283.643 66.192C283.163 63.6 283.227 61.216 283.835 59.04C284.443 56.896 285.099 55.392 285.803 54.528C286.475 53.728 287.195 53.072 287.963 52.56ZM322.407 15.168L320.967 18.24C320.679 18.816 320.279 19.152 319.767 19.248C316.503 19.792 313.319 20.384 310.215 21.024C307.143 21.664 304.135 22.32 301.191 22.992C298.279 23.664 295.735 24.304 293.559 24.912C291.383 25.52 289.591 26.096 288.183 26.64C288.247 26.672 288.311 26.72 288.375 26.784C288.439 26.816 288.487 26.864 288.519 26.928C290.535 28.4 292.583 30.016 294.663 31.776C296.743 33.504 298.855 35.36 300.999 37.344L309.255 45.072C309.223 45.104 310.231 45.808 312.279 47.184C312.439 47.312 312.615 47.44 312.807 47.568C313.031 47.696 313.255 47.84 313.479 48L314.919 48.96C316.615 49.248 317.047 50.768 316.215 53.52C315.959 54.32 315.495 54.72 314.823 54.72C312.583 54.752 309.415 52.56 305.319 48.144C303.943 46.64 302.695 45.344 301.575 44.256C300.487 43.136 299.527 42.224 298.695 41.52C298.855 42.224 298.935 42.896 298.935 43.536C298.967 44.144 298.919 44.704 298.791 45.216C298.535 46.272 297.575 47.616 295.911 49.248C294.599 50.528 293.159 51.024 291.591 50.736C289.607 50.352 288.663 49.408 288.759 47.904C288.855 47.264 289.287 46.864 290.055 46.704C292.327 46.384 294.455 45.568 296.439 44.256C295.607 41.952 293.959 39.536 291.495 37.008L285.159 30.576C284.295 29.616 283.991 28.8 284.247 28.128C285.207 25.984 286.263 24.288 287.415 23.04C288.023 22.432 288.839 21.888 289.863 21.408C292.999 20 297.191 18.624 302.439 17.28C307.687 15.936 313.975 14.656 321.303 13.44C321.591 13.408 321.847 13.44 322.071 13.536C322.679 13.824 322.791 14.368 322.407 15.168ZM323.502 47.04C324.494 48.256 325.486 48.912 326.478 49.008C327.374 49.104 327.886 49.424 328.014 49.968C328.11 50.352 328.11 51.024 328.014 51.984C327.982 52.464 327.902 52.88 327.774 53.232C327.678 53.552 327.582 53.824 327.486 54.048C327.294 54.496 326.958 54.72 326.478 54.72C324.686 54.72 322.958 53.696 321.294 51.648C319.31 53.696 317.134 54.72 314.766 54.72C314.094 54.72 313.662 54.288 313.47 53.424L313.038 51.456C312.942 50.944 313.07 50.416 313.422 49.872C313.774 49.296 314.222 48.992 314.766 48.96C318.574 48.672 320.91 47.728 321.774 46.128C322.062 45.648 322.366 45.408 322.686 45.408C323.166 45.408 323.406 45.68 323.406 46.224C323.406 46.48 323.422 46.672 323.454 46.8C323.486 46.928 323.502 47.008 323.502 47.04ZM322.494 56.88C322.686 56.624 322.958 56.544 323.31 56.64C323.95 56.864 324.574 57.152 325.182 57.504C325.79 57.856 326.35 58.256 326.862 58.704C327.118 58.96 327.166 59.248 327.006 59.568L324.702 63.216C324.446 63.568 324.158 63.6 323.838 63.312C323.71 63.184 323.422 62.976 322.974 62.688C322.558 62.432 321.998 62.096 321.294 61.68L319.71 64.272C319.486 64.592 319.198 64.624 318.846 64.368C318.686 64.24 318.302 64 317.694 63.648C317.118 63.296 316.334 62.816 315.342 62.208C314.99 62.016 314.942 61.744 315.198 61.392L317.502 57.936C317.694 57.68 317.966 57.6 318.318 57.696C319.278 58.016 320.174 58.48 321.006 59.088L322.494 56.88ZM330.948 48.48C330.276 52.64 328.788 54.72 326.484 54.72C325.876 54.72 325.476 54.384 325.284 53.712C324.516 51.056 324.916 49.488 326.484 49.008C328.34 48.432 329.268 47.184 329.268 45.264L328.452 24.48C328.42 23.744 328.532 23.248 328.788 22.992L330.564 20.976C331.172 20.272 331.476 20.672 331.476 22.176L332.004 33.264C332.26 39.152 332.5 42.752 332.724 44.064C333.3 46.976 334.388 48.624 335.988 49.008C336.756 49.2 337.188 49.92 337.284 51.168C337.38 52.384 337.252 53.392 336.9 54.192C336.708 54.544 336.404 54.72 335.988 54.72C333.78 54.72 332.1 52.64 330.948 48.48ZM352.513 46.464L351.457 49.344C351.329 49.728 351.057 50.08 350.641 50.4C349.649 51.104 348.497 51.744 347.185 52.32C345.905 52.864 344.513 53.36 343.009 53.808C340.033 54.672 337.649 54.976 335.857 54.72C334.545 54.528 334.033 53.312 334.321 51.072C334.513 49.76 334.961 49.056 335.665 48.96H336.049C335.505 47.904 335.185 46.832 335.089 45.744C334.801 42.928 335.665 40.496 337.681 38.448C339.665 36.432 341.601 35.296 343.489 35.04C345.377 34.784 347.761 36.032 350.641 38.784C351.057 39.168 351.121 39.6 350.833 40.08C350.513 40.592 350.001 40.704 349.297 40.416C346.929 39.52 344.081 39.648 340.753 40.8C339.505 41.216 338.785 41.68 338.593 42.192C338.401 42.672 338.849 43.696 339.937 45.264C341.025 46.832 341.921 47.696 342.625 47.856C344.257 48.176 346.113 47.76 348.193 46.608L351.073 44.928C352.769 43.968 353.249 44.48 352.513 46.464ZM373.424 47.616C373.488 46.464 373.632 45.392 373.856 44.4C374.08 43.376 374.4 42.432 374.816 41.568C377.824 35.488 381.984 36.064 387.296 43.296C387.68 43.904 387.84 44.432 387.776 44.88C387.552 46.256 387.36 47.344 387.2 48.144C387.072 48.912 386.96 49.392 386.864 49.584C386.576 50.384 386.032 50.704 385.232 50.544C380.432 49.392 376.64 50.352 373.856 53.424C374.4 55.568 374.912 57.616 375.392 59.568C375.872 61.552 376.304 63.472 376.688 65.328C377.392 68.752 377.856 71.504 378.08 73.584C378.304 75.696 378.304 77.152 378.08 77.952C377.856 78.688 377.504 79.104 377.024 79.2C376.32 79.296 375.904 78.672 375.776 77.328C375.648 75.888 375.424 74.304 375.104 72.576C374.784 70.848 374.352 68.976 373.808 66.96C371.888 59.664 371.072 54.88 371.36 52.608C371.648 50.368 372.336 48.704 373.424 47.616ZM376.16 46.176C376.736 45.92 377.376 45.712 378.08 45.552C378.784 45.36 379.536 45.216 380.336 45.12C379.152 44.128 378.272 43.728 377.696 43.92C376.832 44.176 376.32 44.928 376.16 46.176ZM412.551 44.4C412.807 46.384 412.663 47.456 412.119 47.616C411.671 47.776 411.303 47.344 411.015 46.32C409.575 41.744 406.439 38.016 401.607 35.136L401.079 36.288C400.567 37.344 399.623 37.408 398.247 36.48L394.071 33.6C393.239 33.056 392.823 32.384 392.823 31.584L392.727 26.448C392.727 25.68 392.967 25.168 393.447 24.912C393.959 24.624 394.583 24.656 395.319 25.008C405.943 30.512 411.687 36.976 412.551 44.4ZM414.965 22.512L416.501 20.544C417.237 19.552 417.653 20.016 417.749 21.936C418.421 32.88 419.189 40.032 420.053 43.392C420.917 46.784 422.149 48.656 423.749 49.008C425.061 49.328 425.557 50.688 425.237 53.088C425.077 54.176 424.517 54.72 423.557 54.72C420.613 54.72 418.629 52.88 417.605 49.2C417.061 47.216 416.645 44.8 416.357 41.952C416.229 40.512 416.117 39.376 416.021 38.544C415.957 37.68 415.909 37.136 415.877 36.912C415.109 43.92 413.141 49.344 409.973 53.184C408.597 54.784 406.917 55.776 404.933 56.16C403.589 56.416 402.261 56.624 400.949 56.784C399.637 56.944 398.325 57.056 397.013 57.12C396.469 57.12 396.165 56.928 396.101 56.544C396.037 56.128 396.197 55.856 396.581 55.728C404.261 53.008 409.205 49.664 411.413 45.696C412.597 43.392 413.429 40.16 413.909 36C414.165 33.92 414.341 32.096 414.437 30.528C414.533 28.928 414.565 27.584 414.533 26.496C414.469 24.288 414.613 22.96 414.965 22.512ZM429.659 45.984C429.915 45.28 430.347 45.04 430.955 45.264C431.531 45.52 431.611 46.112 431.195 47.04L430.763 47.904C434.219 49.152 436.699 48.192 438.203 45.024C438.491 44.32 438.923 44.096 439.499 44.352C440.043 44.608 440.171 45.104 439.883 45.84C439.595 46.608 439.451 47.12 439.451 47.376C439.515 48.08 440.139 48.496 441.323 48.624C442.507 48.752 443.291 48.56 443.675 48.048C444.091 47.472 444.459 46.384 444.779 44.784C444.875 44.336 445.147 44.112 445.595 44.112C446.043 44.112 446.331 44.304 446.459 44.688C447.451 47.344 448.923 48.768 450.875 48.96C451.611 49.056 452.091 49.632 452.315 50.688C452.539 51.68 452.523 52.608 452.267 53.472C452.011 54.304 451.547 54.72 450.875 54.72C447.995 54.72 446.043 53.088 445.019 49.824C444.795 50.528 444.555 51.2 444.299 51.84C444.043 52.448 443.787 53.008 443.531 53.52C443.051 54.448 442.331 54.944 441.371 55.008C439.131 55.104 437.403 54.4 436.187 52.896C434.907 54.08 433.387 54.672 431.627 54.672C429.867 54.672 428.475 54.16 427.451 53.136C426.843 53.648 426.203 54.032 425.531 54.288C424.891 54.576 424.235 54.72 423.562 54.72C422.698 54.72 422.138 53.936 421.882 52.368C421.85 52.176 421.818 51.952 421.786 51.696C421.754 51.408 421.722 51.088 421.69 50.736C421.626 49.936 421.994 49.392 422.794 49.104C423.082 49.008 423.338 48.96 423.562 48.96C426.987 48.736 429.019 47.744 429.659 45.984ZM454.924 26.496C456.204 35.936 456.684 42.416 456.364 45.936C455.852 51.248 454.012 54.176 450.844 54.72C450.044 54.848 449.596 54.352 449.5 53.232C449.468 52.88 449.452 52.496 449.452 52.08C449.42 51.632 449.42 51.152 449.452 50.64C449.516 49.616 449.98 49.056 450.844 48.96C452.636 48.768 453.772 48.224 454.252 47.328C454.22 46.944 453.98 45.008 453.532 41.52C453.116 38 452.46 32.928 451.564 26.304C451.468 25.696 451.372 25.2 451.276 24.816C451.212 24.4 451.148 24.08 451.084 23.856C450.764 23.088 450.78 22.352 451.132 21.648L452.332 19.248C452.78 18.32 453.244 18.528 453.724 19.872C453.98 20.512 454.268 21.104 454.588 21.648C454.94 22.192 455.372 22.672 455.884 23.088C456.556 23.632 456.62 24.256 456.076 24.96L454.924 26.496ZM463.986 20.784C464.626 19.408 465.042 19.728 465.234 21.744L466.386 33.456C467.346 43.952 467.122 50.56 465.714 53.28C465.394 53.856 465.09 54.096 464.802 54C464.482 53.904 464.338 53.136 464.37 51.696C464.402 50.48 464.274 48.48 463.986 45.696C463.698 42.88 463.266 39.312 462.69 34.992L461.682 27.024C461.586 26.352 461.682 25.696 461.97 25.056L463.986 20.784Z" fill="#45356E"/>
</svg>
